<svg width="24" height="24" viewBox="0 0 24 24" fill="none" xmlns="http://www.w3.org/2000/svg">
<g clip-path="url(#clip0_21_4)">
<path d="M12 23.0753L11.4336 23.7288C11.5079 23.8148 11.5962 23.883 11.6934 23.9295C11.7906 23.976 11.8948 24 12 24C12.1052 24 12.2094 23.976 12.3066 23.9295C12.4038 23.883 12.4921 23.8148 12.5664 23.7288L12 23.0753ZM12 4.61507L11.4336 5.26856C11.5079 5.35452 11.5962 5.42272 11.6934 5.46925C11.7906 5.51578 11.8948 5.53973 12 5.53973C12.1052 5.53973 12.2094 5.51578 12.3066 5.46925C12.4038 5.42272 12.4921 5.35452 12.5664 5.26856L12 4.61507ZM12.5664 22.4218L3.0224 11.4121L1.8912 12.7173L11.4336 23.7288L12.5664 22.4218ZM20.9776 11.4121L11.4336 22.4218L12.5664 23.7288L22.1088 12.7173L20.9776 11.4121ZM9.8912 3.48714L11.4336 5.26856L12.5664 3.96157L11.0224 2.182L9.8912 3.48714ZM12.5664 5.26856L14.1088 3.48714L12.9776 2.182L11.4336 3.96157L12.5664 5.26856ZM17.5424 0C15.8304 0 14.1888 0.784561 12.9776 2.182L14.1088 3.48714C15.0196 2.43676 16.2546 1.8465 17.5424 1.84603V0ZM22.4 7.45056C22.4 8.93662 21.888 10.3617 20.976 11.4121L22.1088 12.7173C23.3194 11.3204 23.9997 9.42598 24 7.45056H22.4ZM24 7.45056C24 5.47455 23.3196 3.57947 22.1086 2.18222C20.8976 0.784968 19.2551 0 17.5424 0V1.84603C18.8307 1.84603 20.0663 2.4365 20.9772 3.48756C21.8882 4.53861 22.4 5.96415 22.4 7.45056H24ZM6.4576 1.84603C7.7456 1.84603 8.9808 2.43676 9.8912 3.48899L11.0224 2.182C9.81168 0.78523 8.16975 0.000374921 6.4576 0V1.84603ZM1.6 7.45056C1.6 5.96415 2.11178 4.53861 3.02276 3.48756C3.93373 2.4365 5.16928 1.84603 6.4576 1.84603V0C4.74494 0 3.10242 0.784968 1.89139 2.18222C0.680352 3.57947 0 5.47455 0 7.45056H1.6ZM3.0224 11.4121C2.57118 10.8921 2.21478 10.2745 1.97045 9.59478C1.72612 8.91505 1.60024 8.18644 1.6 7.45056H0C0 9.42581 0.68 11.3198 1.8912 12.7173L3.0224 11.4121Z" fill="black"/>
</g>
<defs>
<clipPath id="clip0_21_4">
<rect width="24" height="24" fill="white"/>
</clipPath>
</defs>
</svg>
