<svg xmlns="http://www.w3.org/2000/svg" width="24" height="24" viewBox="0 0 24 24">
  <g id="ic_옵션" transform="translate(-483.476 -115)">
    <rect id="area" width="24" height="24" transform="translate(483.476 115)" fill="none"/>
    <g id="_1" data-name="1" transform="translate(484.958 115.49)">
      <g id="settings" transform="translate(-3.163 -3)" fill="none">
        <path d="M16.321,25.518H12.036a1.176,1.176,0,0,1-1.15-.922l-.479-1.74A9.43,9.43,0,0,1,8.6,21.815l-1.755.452a1.179,1.179,0,0,1-1.377-.531l-2.147-3.7a1.177,1.177,0,0,1,.227-1.453l1.27-1.29a9.464,9.464,0,0,1,0-2.078l-1.27-1.287a1.177,1.177,0,0,1-.227-1.454l2.143-3.7A1.179,1.179,0,0,1,6.84,6.249L8.594,6.7a9.512,9.512,0,0,1,.9-.586,9.677,9.677,0,0,1,.916-.453l.48-1.738A1.176,1.176,0,0,1,12.036,3h4.285a1.176,1.176,0,0,1,1.149.923l.485,1.739a9.425,9.425,0,0,1,.964.49,8.945,8.945,0,0,1,.842.55l1.756-.452a1.179,1.179,0,0,1,1.376.531l2.143,3.7a1.177,1.177,0,0,1-.227,1.453l-1.27,1.29a9.464,9.464,0,0,1,0,2.078l1.27,1.29a1.177,1.177,0,0,1,.227,1.453l-2.143,3.7a1.179,1.179,0,0,1-1.376.531l-1.756-.452a9.4,9.4,0,0,1-.852.557,9.648,9.648,0,0,1-.954.482L17.47,24.6A1.176,1.176,0,0,1,16.321,25.518Z" stroke="none"/>
        <path d="M 15.69493675231934 23.51798248291016 L 16.28447532653809 21.40973281860352 L 17.15314483642578 21.02944374084473 C 17.41109466552734 20.91652297973633 17.66544532775879 20.7879524230957 17.90717506408691 20.64845275878906 C 18.13704490661621 20.51544380187988 18.3627758026123 20.36789321899414 18.57811546325684 20.20990371704102 L 19.34186553955078 19.64956283569336 L 21.47679901123047 20.19853019714355 L 22.9871826171875 17.59189987182617 L 21.44688415527344 16.02703285217285 L 21.55126571655273 15.0820426940918 C 21.61133575439453 14.53824329376221 21.61133575439453 13.98678302764893 21.55126571655273 13.44298267364502 L 21.44688415527344 12.49799346923828 L 22.98718070983887 10.9331226348877 L 21.47679710388184 8.32649040222168 L 19.33941459655762 8.876072883605957 L 18.57479476928711 8.312673568725586 C 18.36600494384766 8.1588134765625 18.14609527587891 8.01512336730957 17.92120552062988 7.885592937469482 L 17.91207504272461 7.880293369293213 C 17.66780471801758 7.7378830909729 17.41223526000977 7.607953071594238 17.1524543762207 7.494102954864502 L 16.28356552124023 7.113333225250244 L 15.69419765472412 5.000003337860107 L 12.66402721405029 5.000003337860107 L 12.07840538024902 7.119072914123535 L 11.19662475585938 7.498353004455566 C 10.95272350311279 7.603269577026367 10.71167087554932 7.722189903259277 10.48000717163086 7.851874351501465 C 10.23997402191162 7.990832328796387 10.00528335571289 8.144693374633789 9.782224655151367 8.309332847595215 L 9.017094612121582 8.874113082885742 L 6.878984928131104 8.32396411895752 L 5.368467807769775 10.93082046508789 L 6.908975124359131 12.49164295196533 L 6.804405212402344 13.43829345703125 C 6.744335174560547 13.98209285736084 6.744335174560547 14.53355312347412 6.804405212402344 15.07735347747803 L 6.908784866333008 16.02234268188477 L 5.369061470031738 17.58663177490234 L 6.882917881011963 20.1918773651123 L 9.018594741821289 19.64236259460449 L 9.782565116882324 20.20309257507324 C 10.22449493408203 20.52745246887207 10.70354461669922 20.80320358276367 11.20643520355225 21.02270317077637 L 12.08125495910645 21.4045524597168 L 12.66309452056885 23.51798248291016 L 15.69493675231934 23.51798248291016 M 16.32111549377441 25.51798248291016 L 12.03571510314941 25.51798248291016 C 11.48253536224365 25.51798248291016 11.0038948059082 25.13448333740234 10.8855152130127 24.59616279602051 L 10.4063549041748 22.85570335388184 C 9.767134666442871 22.57669258117676 9.161014556884766 22.227783203125 8.599184989929199 21.8154239654541 L 6.844305038452148 22.26695251464844 C 6.316876888275146 22.43454742431641 5.743515491485596 22.21335220336914 5.466855049133301 21.73567390441895 L 3.319445133209229 18.0401439666748 C 3.045835018157959 17.56222343444824 3.140094995498657 16.95939254760742 3.546664953231812 16.58702278137207 L 4.816494941711426 15.2969331741333 C 4.740204811096191 14.60626316070557 4.740204811096191 13.90937328338623 4.816494941711426 13.21871280670166 L 3.546664953231812 11.93213272094727 C 3.139495134353638 11.55961322784424 3.04519510269165 10.95602321624756 3.319445133209229 10.4778528213501 L 5.46214485168457 6.779973030090332 C 5.738804817199707 6.30228328704834 6.312164783477783 6.081143856048584 6.839594841003418 6.248682975769043 L 8.594474792480469 6.700222969055176 C 8.881805419921875 6.488132953643799 9.180925369262695 6.292343139648438 9.490405082702637 6.113812923431396 C 9.787485122680664 5.946913242340088 10.09322547912598 5.795803070068359 10.4063549041748 5.661113262176514 L 10.88669490814209 3.923003196716309 C 11.0045051574707 3.384643077850342 11.48263549804688 3.00057315826416 12.03571510314941 3.000003099441528 L 16.32111549377441 3.000003099441528 C 16.87421417236328 3.00057315826416 17.35231590270996 3.384643077850342 17.47016525268555 3.923003196716309 L 17.95521545410156 5.662282943725586 C 18.28579521179199 5.807153224945068 18.60779571533203 5.970823287963867 18.91942596435547 6.152513027191162 C 19.21021461486816 6.320003032684326 19.49124526977539 6.503643035888672 19.76120567321777 6.702563285827637 L 21.51726531982422 6.251033306121826 C 22.04433250427246 6.084112167358398 22.61698341369629 6.305173397064209 22.89353561401367 6.782323360443115 L 25.03622436523438 10.48019313812256 C 25.30983543395996 10.95809268951416 25.21564483642578 11.56095314025879 24.80901527404785 11.9333028793335 L 23.53917503356934 13.22340297698975 C 23.61546516418457 13.91407299041748 23.61546516418457 14.61095333099365 23.53917503356934 15.30162334442139 L 24.80901527404785 16.59171295166016 C 25.21564483642578 16.96408271789551 25.30983543395996 17.56691360473633 25.03622436523438 18.04483222961426 L 22.89353561401367 21.74270248413086 C 22.61698532104492 22.21980476379395 22.04433441162109 22.44088554382324 21.51726531982422 22.27399253845215 L 19.76120567321777 21.82245254516602 C 19.48736572265625 22.02336311340332 19.20292472839355 22.20937347412109 18.90883445739746 22.37954330444336 C 18.60014533996582 22.55769348144531 18.28179550170898 22.71860313415527 17.95521545410156 22.861572265625 L 17.47016525268555 24.59616279602051 C 17.35184478759766 25.13401222229004 16.87385559082031 25.51752281188965 16.32111549377441 25.51798248291016 Z" stroke="none" fill="#fff"/>
      </g>
      <g id="타원_28" data-name="타원 28" transform="translate(6.853 7.098)" fill="none" stroke="#fff" stroke-width="2">
        <circle cx="4.161" cy="4.161" r="4.161" stroke="none"/>
        <circle cx="4.161" cy="4.161" r="3.161" fill="none"/>
      </g>
    </g>
  </g>
</svg>
