<svg width="24" height="24" viewBox="0 0 24 24" fill="none" xmlns="http://www.w3.org/2000/svg">
<g clip-path="url(#clip0_21_2)">
<path d="M23.4 23.4L17 17M10.6 20.2C9.33931 20.2 8.09097 19.9517 6.92624 19.4692C5.76151 18.9868 4.70322 18.2797 3.81178 17.3882C2.92033 16.4968 2.2132 15.4385 1.73076 14.2738C1.24831 13.109 1 11.8607 1 10.6C1 9.33931 1.24831 8.09097 1.73076 6.92624C2.2132 5.76151 2.92033 4.70322 3.81178 3.81178C4.70322 2.92033 5.76151 2.2132 6.92624 1.73076C8.09097 1.24831 9.33931 1 10.6 1C13.1461 1 15.5879 2.01143 17.3882 3.81178C19.1886 5.61212 20.2 8.05392 20.2 10.6C20.2 13.1461 19.1886 15.5879 17.3882 17.3882C15.5879 19.1886 13.1461 20.2 10.6 20.2Z" stroke="black" stroke-width="2.13333"/>
</g>
<defs>
<clipPath id="clip0_21_2">
<rect width="24" height="24" fill="white"/>
</clipPath>
</defs>
</svg>
